<?xml version="1.0" encoding="UTF-8"?>
<svg xmlns="http://www.w3.org/2000/svg" xmlns:xlink="http://www.w3.org/1999/xlink" width="30pt" height="30.000001pt" viewBox="0 0 30 30.000001" version="1.2">
<defs>
<clipPath id="clip1">
  <path d="M 0.484375 0 L 29.515625 0 L 29.515625 29.03125 L 0.484375 29.03125 Z M 0.484375 0 "/>
</clipPath>
</defs>
<g id="surface1">
<g clip-path="url(#clip1)" clip-rule="nonzero">
<path style=" stroke:none;fill-rule:evenodd;fill:rgb(0%,29.019165%,67.83905%);fill-opacity:1;" d="M 15 29.035156 C 22.996094 29.035156 29.515625 22.511719 29.515625 14.515625 C 29.515625 6.519531 22.996094 0 15 0 C 7.003906 0 0.484375 6.519531 0.484375 14.515625 C 0.484375 22.511719 7.003906 29.035156 15 29.035156 "/>
</g>
<path style=" stroke:none;fill-rule:evenodd;fill:rgb(100%,100%,99.609375%);fill-opacity:1;" d="M 19.859375 11.554688 L 19.859375 22.457031 L 8.691406 22.457031 L 8.691406 8.027344 L 16.324219 8.027344 L 16.324219 11.554688 Z M 10.652344 12.53125 L 10.652344 13.195312 L 17.898438 13.195312 L 17.898438 12.53125 Z M 10.652344 19.777344 L 10.652344 20.4375 L 17.898438 20.4375 L 17.898438 19.777344 Z M 10.652344 17.964844 L 10.652344 18.628906 L 17.898438 18.628906 L 17.898438 17.964844 Z M 10.652344 16.15625 L 10.652344 16.816406 L 17.898438 16.816406 L 17.898438 16.15625 Z M 10.652344 14.34375 L 10.652344 15.003906 L 17.898438 15.003906 L 17.898438 14.34375 L 10.652344 14.34375 "/>
<path style=" stroke:none;fill-rule:nonzero;fill:rgb(100%,100%,99.609375%);fill-opacity:1;" d="M 18.917969 10.5625 L 17.316406 8.960938 L 17.316406 10.5625 Z M 17.417969 8.125 L 19.761719 10.476562 L 19.859375 10.707031 L 19.859375 11.226562 L 16.65625 11.226562 L 16.65625 8.027344 L 17.320312 8.027344 L 17.417969 8.125 "/>
<path style=" stroke:none;fill-rule:nonzero;fill:rgb(100%,100%,99.609375%);fill-opacity:1;" d="M 20.648438 20.675781 L 20.648438 9.394531 L 18.496094 7.238281 L 10.472656 7.238281 L 10.472656 6.578125 L 18.769531 6.578125 L 18.867188 6.675781 L 21.210938 9.027344 L 21.308594 9.257812 L 21.308594 20.675781 L 20.648438 20.675781 "/>
</g>
</svg>
