<?xml version="1.0" encoding="UTF-8"?>
<svg xmlns="http://www.w3.org/2000/svg" xmlns:xlink="http://www.w3.org/1999/xlink" width="30pt" height="30.000001pt" viewBox="0 0 30 30.000001" version="1.2">
<defs>
<clipPath id="clip1">
  <path d="M 6 19 L 15 19 L 15 24.144531 L 6 24.144531 Z M 6 19 "/>
</clipPath>
<clipPath id="clip2">
  <path d="M 6 22 L 9 22 L 9 24.144531 L 6 24.144531 Z M 6 22 "/>
</clipPath>
<clipPath id="clip3">
  <path d="M 1.476562 12 L 8 12 L 8 24 L 1.476562 24 Z M 1.476562 12 "/>
</clipPath>
<clipPath id="clip4">
  <path d="M 15 19 L 24 19 L 24 24.144531 L 15 24.144531 Z M 15 19 "/>
</clipPath>
<clipPath id="clip5">
  <path d="M 16 9 L 28.136719 9 L 28.136719 23 L 16 23 Z M 16 9 "/>
</clipPath>
<clipPath id="clip6">
  <path d="M 14 4.660156 L 21 4.660156 L 21 18 L 14 18 Z M 14 4.660156 "/>
</clipPath>
<clipPath id="clip7">
  <path d="M 8 4.660156 L 15 4.660156 L 15 18 L 8 18 Z M 8 4.660156 "/>
</clipPath>
</defs>
<g id="surface1">
<path style=" stroke:none;fill-rule:nonzero;fill:rgb(83.139038%,14.898682%,18.429565%);fill-opacity:1;" d="M 9.8125 10.632812 L 9.664062 10.707031 L 10.429688 12.25 L 10.582031 12.175781 C 10.722656 12.105469 10.777344 11.933594 10.707031 11.792969 L 10.195312 10.761719 C 10.125 10.621094 9.957031 10.5625 9.8125 10.632812 "/>
<path style=" stroke:none;fill-rule:nonzero;fill:rgb(97.648621%,73.728943%,16.468811%);fill-opacity:1;" d="M 10.839844 12.695312 L 10.6875 12.769531 L 11.453125 14.3125 L 11.605469 14.238281 C 11.746094 14.167969 11.804688 13.996094 11.734375 13.855469 L 11.222656 12.824219 C 11.152344 12.683594 10.980469 12.625 10.839844 12.695312 "/>
<g clip-path="url(#clip1)" clip-rule="nonzero">
<path style=" stroke:none;fill-rule:nonzero;fill:rgb(77.249146%,57.249451%,2.749634%);fill-opacity:1;" d="M 6.789062 22.789062 C 6.488281 22.9375 6.421875 23.417969 6.574219 23.722656 C 6.722656 24.023438 7.089844 24.144531 7.386719 23.996094 L 14.675781 20.355469 L 14.078125 19.148438 L 6.789062 22.789062 "/>
</g>
<g clip-path="url(#clip2)" clip-rule="nonzero">
<path style=" stroke:none;fill-rule:nonzero;fill:rgb(76.078796%,38.038635%,5.879211%);fill-opacity:1;" d="M 7.421875 22.472656 L 6.789062 22.789062 C 6.488281 22.9375 6.421875 23.417969 6.574219 23.722656 C 6.722656 24.023438 7.089844 24.144531 7.386719 23.996094 L 8.019531 23.679688 L 7.421875 22.472656 "/>
</g>
<g clip-path="url(#clip3)" clip-rule="nonzero">
<path style=" stroke:none;fill-rule:nonzero;fill:rgb(92.549133%,24.308777%,23.139954%);fill-opacity:1;" d="M 1.648438 13.804688 L 1.722656 13.957031 L 6.546875 23.667969 C 6.386719 23.34375 6.78125 22.816406 7.429688 22.492188 L 2.53125 12.625 C 1.878906 12.949219 1.484375 13.476562 1.648438 13.804688 "/>
</g>
<path style=" stroke:none;fill-rule:nonzero;fill:rgb(88.62915%,90.19928%,68.238831%);fill-opacity:1;" d="M 6.769531 22.796875 C 6.480469 22.941406 6.363281 23.296875 6.507812 23.585938 C 6.652344 23.878906 7.003906 23.996094 7.296875 23.851562 L 14.34375 20.332031 L 13.820312 19.277344 L 6.769531 22.796875 "/>
<path style=" stroke:none;fill-rule:nonzero;fill:rgb(78.039551%,79.219055%,59.999084%);fill-opacity:1;" d="M 6.769531 22.796875 C 6.480469 22.941406 6.363281 23.296875 6.507812 23.585938 C 6.53125 23.636719 6.5625 23.683594 6.601562 23.722656 C 6.554688 23.46875 6.675781 23.207031 6.914062 23.085938 L 13.964844 19.566406 L 13.820312 19.277344 L 6.769531 22.796875 "/>
<path style=" stroke:none;fill-rule:nonzero;fill:rgb(100%,94.898987%,0%);fill-opacity:1;" d="M 14.078125 19.148438 L 7.421875 22.472656 L 2.53125 12.625 L 9.1875 9.300781 L 14.078125 19.148438 "/>
<path style=" stroke:none;fill-rule:nonzero;fill:rgb(83.139038%,14.898682%,18.429565%);fill-opacity:1;" d="M 27.507812 14.058594 L 27.355469 13.992188 L 26.671875 15.570312 L 26.824219 15.640625 C 26.96875 15.703125 27.136719 15.636719 27.199219 15.492188 L 27.65625 14.433594 C 27.71875 14.289062 27.652344 14.121094 27.507812 14.058594 "/>
<path style=" stroke:none;fill-rule:nonzero;fill:rgb(97.648621%,73.728943%,16.468811%);fill-opacity:1;" d="M 26.59375 16.175781 L 26.4375 16.105469 L 25.753906 17.6875 L 25.910156 17.753906 C 26.054688 17.816406 26.222656 17.75 26.285156 17.605469 L 26.742188 16.550781 C 26.804688 16.40625 26.738281 16.238281 26.59375 16.175781 "/>
<g clip-path="url(#clip4)" clip-rule="nonzero">
<path style=" stroke:none;fill-rule:nonzero;fill:rgb(13.729858%,35.688782%,25.878906%);fill-opacity:1;" d="M 16.285156 19.558594 C 15.976562 19.425781 15.566406 19.683594 15.433594 19.996094 C 15.300781 20.304688 15.441406 20.664062 15.75 20.796875 L 23.21875 24.046875 L 23.753906 22.8125 L 16.285156 19.558594 "/>
</g>
<path style=" stroke:none;fill-rule:nonzero;fill:rgb(48.239136%,22.349548%,3.919983%);fill-opacity:1;" d="M 16.929688 19.839844 L 16.285156 19.558594 C 15.976562 19.425781 15.566406 19.683594 15.433594 19.996094 C 15.300781 20.304688 15.441406 20.664062 15.75 20.796875 L 16.394531 21.078125 L 16.929688 19.839844 "/>
<path style=" stroke:none;fill-rule:nonzero;fill:rgb(94.119263%,45.098877%,8.628845%);fill-opacity:1;" d="M 19.832031 9.832031 L 19.765625 9.992188 L 15.457031 19.941406 C 15.601562 19.605469 16.257812 19.570312 16.921875 19.859375 L 21.300781 9.75 C 20.632812 9.460938 19.976562 9.496094 19.832031 9.832031 "/>
<path style=" stroke:none;fill-rule:nonzero;fill:rgb(88.62915%,90.19928%,68.238831%);fill-opacity:1;" d="M 16.265625 19.550781 C 15.96875 19.421875 15.621094 19.558594 15.492188 19.855469 C 15.363281 20.15625 15.5 20.503906 15.796875 20.632812 L 23.019531 23.777344 L 23.488281 22.695312 L 16.265625 19.550781 "/>
<path style=" stroke:none;fill-rule:nonzero;fill:rgb(78.039551%,79.219055%,59.999084%);fill-opacity:1;" d="M 16.265625 19.550781 C 15.96875 19.421875 15.621094 19.558594 15.492188 19.855469 C 15.46875 19.910156 15.457031 19.960938 15.449219 20.015625 C 15.613281 19.816406 15.890625 19.742188 16.136719 19.847656 L 23.359375 22.996094 L 23.488281 22.695312 L 16.265625 19.550781 "/>
<g clip-path="url(#clip5)" clip-rule="nonzero">
<path style=" stroke:none;fill-rule:nonzero;fill:rgb(27.059937%,71.369934%,51.759338%);fill-opacity:1;" d="M 23.753906 22.8125 L 16.929688 19.839844 L 21.300781 9.75 L 28.121094 12.722656 L 23.753906 22.8125 "/>
</g>
<path style=" stroke:none;fill-rule:nonzero;fill:rgb(69.799805%,66.268921%,0%);fill-opacity:1;" d="M 9.253906 9.378906 L 6.476562 10.765625 L 6.476562 17.382812 C 6.476562 17.859375 6.863281 18.242188 7.335938 18.242188 L 12.953125 18.242188 C 13.117188 18.453125 13.457031 18.625 13.886719 18.710938 L 9.253906 9.378906 "/>
<path style=" stroke:none;fill-rule:nonzero;fill:rgb(21.179199%,55.688477%,55.288696%);fill-opacity:1;" d="M 17.730469 17.996094 L 21.300781 9.75 C 20.996094 9.621094 20.695312 9.554688 20.445312 9.554688 C 20.34375 9.554688 20.246094 9.566406 20.164062 9.589844 L 20.417969 9.035156 L 22.527344 10.285156 L 21.300781 9.75 L 17.730469 17.996094 "/>
<path style=" stroke:none;fill-rule:nonzero;fill:rgb(26.669312%,30.198669%,15.689087%);fill-opacity:1;" d="M 17.730469 17.996094 L 16.296875 17.996094 L 20.164062 9.589844 C 20.246094 9.566406 20.34375 9.554688 20.445312 9.554688 C 20.695312 9.554688 20.996094 9.621094 21.300781 9.75 L 17.730469 17.996094 "/>
<path style=" stroke:none;fill-rule:nonzero;fill:rgb(6.669617%,48.629761%,34.899902%);fill-opacity:1;" d="M 21.375 18.007812 C 21.261719 18.007812 21.1875 17.996094 21.1875 17.996094 L 17.730469 17.996094 L 21.300781 9.75 L 22.527344 10.285156 C 22.527344 10.292969 22.527344 15.128906 22.527344 16.679688 C 22.527344 17.871094 21.742188 18.007812 21.375 18.007812 "/>
<path style=" stroke:none;fill-rule:nonzero;fill:rgb(47.44873%,4.708862%,6.269836%);fill-opacity:1;" d="M 21.253906 5.851562 L 15.367188 5.851562 C 14.917969 5.851562 14.554688 6.21875 14.554688 6.664062 C 14.554688 6.21875 14.191406 5.851562 13.746094 5.851562 L 7.859375 5.851562 C 7.414062 5.851562 7.050781 6.21875 7.050781 6.664062 L 7.050781 16.511719 C 7.050781 16.960938 7.414062 17.324219 7.859375 17.324219 L 13.15625 17.324219 C 13.382812 17.617188 13.96875 17.824219 14.664062 17.824219 C 15.355469 17.824219 15.945312 17.617188 16.171875 17.324219 L 21.253906 17.324219 C 21.699219 17.324219 22.0625 16.960938 22.0625 16.511719 L 22.0625 6.664062 C 22.0625 6.21875 21.699219 5.851562 21.253906 5.851562 "/>
<path style=" stroke:none;fill-rule:nonzero;fill:rgb(61.569214%,62.348938%,47.059631%);fill-opacity:1;" d="M 20.976562 5.6875 L 15.332031 5.6875 C 14.902344 5.6875 14.554688 6.035156 14.554688 6.46875 C 14.554688 6.035156 14.207031 5.6875 13.777344 5.6875 L 8.136719 5.6875 C 7.707031 5.6875 7.359375 6.035156 7.359375 6.46875 L 7.359375 15.90625 C 7.359375 16.335938 7.707031 16.683594 8.136719 16.683594 L 13.214844 16.683594 C 13.429688 16.964844 13.996094 17.164062 14.660156 17.164062 C 15.324219 17.164062 15.886719 16.964844 16.105469 16.683594 L 20.976562 16.683594 C 21.40625 16.683594 21.753906 16.335938 21.753906 15.90625 L 21.753906 6.46875 C 21.753906 6.035156 21.40625 5.6875 20.976562 5.6875 "/>
<path style=" stroke:none;fill-rule:nonzero;fill:rgb(85.099792%,90.589905%,78.039551%);fill-opacity:1;" d="M 14.660156 17.164062 C 15.324219 17.164062 15.886719 16.964844 16.105469 16.683594 L 20.976562 16.683594 C 21.40625 16.683594 21.753906 16.335938 21.753906 15.90625 L 21.753906 6.46875 C 21.753906 6.035156 21.40625 5.6875 20.976562 5.6875 L 15.332031 5.6875 C 14.902344 5.6875 14.554688 6.035156 14.554688 6.46875 C 14.554688 6.367188 14.535156 6.273438 14.503906 6.1875 C 14.496094 6.210938 14.488281 6.230469 14.484375 6.253906 L 14.484375 17.160156 C 14.542969 17.164062 14.597656 17.164062 14.660156 17.164062 "/>
<path style=" stroke:none;fill-rule:nonzero;fill:rgb(70.199585%,71.369934%,53.729248%);fill-opacity:1;" d="M 16.296875 16.679688 L 16.296875 5.691406 L 15.816406 5.683594 L 15.335938 5.691406 L 15.335938 16.679688 L 16.296875 16.679688 "/>
<path style=" stroke:none;fill-rule:nonzero;fill:rgb(78.039551%,32.548523%,7.058716%);fill-opacity:1;" d="M 16.058594 5.691406 L 15.578125 5.683594 L 15.09375 5.691406 L 15.09375 18.660156 L 15.578125 18.175781 L 16.058594 18.660156 L 16.058594 5.691406 "/>
<path style=" stroke:none;fill-rule:nonzero;fill:rgb(58.81958%,19.999695%,5.879211%);fill-opacity:1;" d="M 16.058594 18.660156 L 16.058594 5.691406 L 15.578125 5.683594 L 15.578125 18.175781 L 16.058594 18.660156 "/>
<path style=" stroke:none;fill-rule:nonzero;fill:rgb(70.199585%,71.369934%,53.729248%);fill-opacity:1;" d="M 13.707031 5.683594 L 13.136719 5.683594 L 13.136719 16.679688 L 13.140625 16.679688 C 13.347656 16.945312 13.863281 17.140625 14.484375 17.160156 L 14.484375 6.464844 C 14.484375 6.03125 14.136719 5.683594 13.707031 5.683594 "/>
<path style=" stroke:none;fill-rule:nonzero;fill:rgb(76.469421%,81.17981%,66.268921%);fill-opacity:1;" d="M 20.996094 5.6875 L 15.355469 5.6875 C 15.101562 5.6875 14.875 5.8125 14.734375 6 L 14.734375 16.9375 C 15.21875 16.316406 19.136719 16.351562 20.242188 16.351562 C 21.347656 16.351562 21.179688 15.914062 21.179688 15.914062 L 21.179688 5.710938 C 21.121094 5.695312 21.058594 5.6875 20.996094 5.6875 "/>
<g clip-path="url(#clip6)" clip-rule="nonzero">
<path style=" stroke:none;fill-rule:nonzero;fill:rgb(85.099792%,90.589905%,78.039551%);fill-opacity:1;" d="M 20.601562 4.660156 L 15.609375 5.582031 L 15.082031 5.679688 L 15.082031 5.65625 C 15.082031 5.667969 15.070312 5.675781 15.058594 5.683594 L 15.023438 5.691406 C 15.023438 5.691406 14.539062 5.867188 14.539062 6.308594 L 14.554688 17.160156 C 14.554688 17.160156 14.726562 16.796875 15.152344 16.628906 L 15.390625 16.585938 L 15.609375 16.546875 L 17.4375 16.207031 L 20.601562 15.621094 C 20.769531 15.621094 20.90625 15.484375 20.90625 15.3125 L 20.90625 4.96875 C 20.90625 4.796875 20.769531 4.660156 20.601562 4.660156 "/>
</g>
<path style=" stroke:none;fill-rule:nonzero;fill:rgb(48.629761%,50.979614%,41.958618%);fill-opacity:1;" d="M 8.054688 5.6875 L 13.695312 5.6875 C 13.953125 5.6875 14.175781 5.8125 14.316406 6 L 14.316406 16.9375 C 13.832031 16.316406 9.914062 16.351562 8.808594 16.351562 C 7.703125 16.351562 7.871094 15.914062 7.871094 15.914062 L 7.871094 5.710938 C 7.929688 5.695312 7.992188 5.6875 8.054688 5.6875 "/>
<g clip-path="url(#clip7)" clip-rule="nonzero">
<path style=" stroke:none;fill-rule:nonzero;fill:rgb(74.899292%,79.60968%,69.018555%);fill-opacity:1;" d="M 8.453125 4.660156 L 13.445312 5.582031 L 13.972656 5.679688 L 13.972656 5.65625 C 13.972656 5.667969 13.980469 5.675781 13.996094 5.683594 L 14.027344 5.691406 C 14.027344 5.691406 14.511719 5.867188 14.511719 6.308594 L 14.496094 17.160156 C 14.496094 17.160156 14.328125 16.796875 13.902344 16.628906 L 13.660156 16.585938 L 13.445312 16.546875 L 11.613281 16.207031 L 8.453125 15.621094 C 8.28125 15.621094 8.144531 15.484375 8.144531 15.3125 L 8.144531 4.96875 C 8.144531 4.796875 8.28125 4.660156 8.453125 4.660156 "/>
</g>
</g>
</svg>
